<?xml version="1.0" standalone="no"?>
<!DOCTYPE svg PUBLIC "-//W3C//DTD SVG 20010904//EN"
 "http://www.w3.org/TR/2001/REC-SVG-20010904/DTD/svg10.dtd">
<svg version="1.0" xmlns="http://www.w3.org/2000/svg"
 width="500.000000pt" height="500.000000pt" viewBox="0 0 500.000000 500.000000"
 preserveAspectRatio="xMidYMid meet">

<g transform="translate(0.000000,500.000000) scale(0.100000,-0.100000)"
fill="#000000" stroke="none">
<path d="M350 3800 l0 -150 50 0 50 0 0 -50 0 -50 75 0 75 0 0 -300 0 -300 50
0 50 0 0 -125 0 -125 50 0 50 0 0 -50 c0 -47 2 -50 25 -50 23 0 25 -3 25 -50
l0 -50 275 0 275 0 0 -500 0 -500 175 0 175 0 0 375 0 375 125 0 125 0 0 -325
0 -325 175 0 175 0 0 325 0 325 250 0 250 0 0 -325 0 -325 225 0 225 0 0 100
0 100 100 0 100 0 0 -150 0 -150 200 0 200 0 0 675 0 675 -75 0 -75 0 0 100 0
100 75 0 75 0 0 -50 0 -50 50 0 50 0 0 -175 0 -175 50 0 50 0 0 -50 0 -50 50
0 50 0 0 -50 0 -50 75 0 75 0 0 50 0 50 -50 0 -50 0 0 100 0 100 -25 0 c-24 0
-25 2 -25 75 l0 75 -50 0 -50 0 0 100 0 100 -50 0 -50 0 0 50 0 50 -250 0
-250 0 0 50 0 50 -100 0 -100 0 0 25 0 25 -600 0 -600 0 0 125 0 125 75 0 75
0 0 50 0 50 50 0 50 0 0 150 0 150 -1000 0 -1000 0 0 -150z m450 0 l0 -50 -50
0 -50 0 0 -50 0 -50 -125 0 -125 0 0 100 0 100 175 0 175 0 0 -50z m750 0 l0
-50 100 0 100 0 0 -50 0 -50 75 0 75 0 0 -100 0 -100 50 0 50 0 0 -250 0 -250
50 0 50 0 0 150 0 150 250 0 250 0 0 -100 0 -100 125 0 125 0 0 100 0 100 150
0 150 0 0 -50 0 -50 125 0 125 0 0 -50 0 -50 75 0 75 0 0 -50 0 -50 50 0 50 0
0 -125 0 -125 50 0 50 0 0 -100 0 -100 -100 0 -100 0 0 -100 0 -100 -25 0
c-23 0 -25 3 -25 50 l0 50 -225 0 -225 0 0 -50 0 -50 -175 0 -175 0 0 100 0
100 -50 0 -50 0 0 -50 0 -50 -125 0 -125 0 0 -50 0 -50 -75 0 -75 0 0 50 0 50
-50 0 -50 0 0 50 0 50 -175 0 -175 0 0 -50 0 -50 -100 0 -100 0 0 -75 0 -75
50 0 50 0 0 -275 0 -275 -75 0 -75 0 0 400 0 400 125 0 125 0 0 50 0 50 -450
0 -450 0 0 50 c0 47 -2 50 -25 50 l-25 0 0 125 0 125 -50 0 -50 0 0 250 0 250
50 0 50 0 0 100 0 100 25 0 c23 0 25 3 25 50 l0 50 100 0 100 0 0 50 0 50 250
0 250 0 0 -50z m700 -50 l0 -100 -75 0 -75 0 0 50 0 50 -50 0 -50 0 0 50 0 50
125 0 125 0 0 -100z m1500 -1750 l0 -300 -100 0 -100 0 0 275 0 275 50 0 c47
0 50 2 50 25 0 23 3 25 50 25 l50 0 0 -300z m-1500 25 l0 -225 -75 0 -75 0 0
225 0 225 75 0 75 0 0 -225z m1250 50 l0 -175 -100 0 -100 0 0 50 0 50 -125 0
-125 0 0 -50 0 -50 50 0 50 0 0 -50 0 -50 -100 0 -100 0 0 100 0 100 50 0 50
0 0 75 0 75 -50 0 -50 0 0 50 0 50 275 0 275 0 0 -175z"/>
<path d="M1050 3400 l0 -150 50 0 50 0 0 150 0 150 -50 0 -50 0 0 -150z"/>
<path d="M1550 3400 l0 -150 50 0 50 0 0 150 0 150 -50 0 -50 0 0 -150z"/>
<path d="M850 3100 c0 -47 -2 -50 -25 -50 -23 0 -25 -3 -25 -50 0 -47 2 -50
25 -50 23 0 25 3 25 50 l0 50 450 0 450 0 0 -50 0 -50 75 0 75 0 0 -125 0
-125 -75 0 -75 0 0 -50 0 -50 75 0 75 0 0 50 0 50 50 0 50 0 0 125 0 125 -50
0 -50 0 0 50 0 50 -75 0 -75 0 0 50 0 50 -450 0 -450 0 0 -50z"/>
<path d="M2250 3100 c0 -47 -2 -50 -25 -50 l-25 0 0 -100 0 -100 25 0 c24 0
25 -2 25 -75 l0 -75 100 0 100 0 0 75 0 75 75 0 75 0 0 -125 0 -125 50 0 50 0
0 50 0 50 50 0 50 0 0 125 0 125 -100 0 -100 0 0 50 0 50 -75 0 -75 0 0 50 0
50 -100 0 -100 0 0 -50z"/>
<path d="M3050 3000 l0 -50 -50 0 -50 0 0 -225 0 -225 50 0 50 0 0 50 0 50
175 0 175 0 0 50 0 50 50 0 50 0 0 125 0 125 -100 0 -100 0 0 50 0 50 -125 0
-125 0 0 -50z"/>
<path d="M1050 2900 l0 -50 50 0 50 0 0 50 0 50 -50 0 -50 0 0 -50z"/>
<path d="M1500 2900 l0 -50 50 0 50 0 0 50 0 50 -50 0 -50 0 0 -50z"/>
</g>
</svg>
